# xmcd
#
# Track frame offsets: 
#        150
#        8142
#        25067
#        42872
#        54508
#        66188
#        79289
#        91872
#        110597
#        126324
#        137569
#        155231
#        170136
#        181172
#
# Disc length: 2687 seconds
#
# Revision: 0
# Processed by: cddbd v1.5.2PL0 Copyright (c) Steve Scherf et al.
# Submitted via: ExactAudioCopy v0.99pb1
#
DISCID=bb0a7d0e
DTITLE=Jeff Larson - Left Of A Dream
DYEAR=2008
DGENRE=Folk/Rock
TTITLE0=Wake Up
TTITLE1=Anywhere She Goes
TTITLE2=Ghosts Of San Miguel
TTITLE3=Red To Dust
TTITLE4=Threat Of Rain
TTITLE5=Where Is Indio, CA
TTITLE6=Karen
TTITLE7=Whereabouts Unknown
TTITLE8=California Rail
TTITLE9=Presiding Over Ruins
TTITLE10=Easy On Me
TTITLE11=Child's Play
TTITLE12=San Miguel-Reprise
TTITLE13=Be Here Anyway
EXTD=
EXTT0=
EXTT1=
EXTT2=
EXTT3=
EXTT4=
EXTT5=
EXTT6=
EXTT7=
EXTT8=
EXTT9=
EXTT10=
EXTT11=
EXTT12=
EXTT13=
PLAYORDER=
